# xmcd CD database file
#
# Track frame offsets:
#	150
#	13260
#	26544
#	42682
#	57308
#	71415
#	84962
#	99382
#	116708
#	134395
#	149381
#	167532
#	181907
#	196938
#	214218
#	229364
#	244308
#
# Disc length: 3692 seconds
#
# Revision: 0
# Processed by: cddbd v1.5.1PL0 Copyright (c) Steve Scherf et al.
# Submitted via: CDex 1.51
#
DISCID=f50e6a11
DTITLE=Swindles - Songs in the Key of T
DYEAR=2002
DGENRE=Rhythmic Soul
TTITLE0=4th of July
TTITLE1=Bama Lama, Bama Loo
TTITLE2=Need You
TTITLE3=Drive Around
TTITLE4=Escalator
TTITLE5=Ready, Willing and Able
TTITLE6=Ain't That Lovin' You Baby
TTITLE7=Let Her Dance
TTITLE8=Dave Shuffle
TTITLE9=Queen of Kendall County
TTITLE10=Nuevo Laredo
TTITLE11=Leased Us a Bus
TTITLE12=Before the Next Teardrop Falls
TTITLE13=Spiders and Snakes
TTITLE14=Janet's Eye
TTITLE15=Stalker's Lament
TTITLE16=She's About a Mover - Boots Are Made For Walkin'
EXTD=YEAR: 2002
EXTT0=
EXTT1=
EXTT2=
EXTT3=
EXTT4=
EXTT5=
EXTT6=
EXTT7=
EXTT8=
EXTT9=
EXTT10=
EXTT11=
EXTT12=
EXTT13=
EXTT14=
EXTT15=
EXTT16=
PLAYORDER=
